<?xml version="1.0" encoding="UTF-8" standalone="no"?>
<svg width="99px" height="99px" viewBox="0 0 99 99" version="1.1" xmlns="http://www.w3.org/2000/svg" xmlns:xlink="http://www.w3.org/1999/xlink">
    <!-- Generator: Sketch 39.1 (31720) - http://www.bohemiancoding.com/sketch -->
    <title>CrossFit</title>
    <desc>Created with Sketch.</desc>
    <defs></defs>
    <g id="icons" stroke="none" stroke-width="1" fill="none" fill-rule="evenodd">
        <g id="CrossFit">
            <g id="Group">
                <rect id="Rectangle-path" fill="#607D8B" x="0" y="14.0873016" width="99" height="4.6957672"></rect>
                <g transform="translate(13.180080, 14.087302)" fill="#FFBA57">
                    <path d="M61.6427052,56.1026786 L46.6442052,48.5988426 L49.4444909,31.8326058 L58.5289195,5.8110119 C59.1464909,3.96322751 58.1470624,1.97222222 56.2943481,1.35707672 C54.4463481,0.732539683 52.4380624,1.73743386 51.8204909,3.58052249 L43.3913481,28.1746032 C43.3913481,28.1746032 43.3913481,30.5224868 36.3199195,30.5224868 C29.2484909,30.5224868 29.2484909,28.1746032 29.2484909,28.1746032 L20.8169909,3.58052249 C20.2017767,1.73743386 18.1982052,0.732539683 16.3431338,1.35707672 C14.4904195,1.97222222 13.4909909,3.96087963 14.1085624,5.8110119 L23.3320624,32.2270503 L26.5613481,52.0173611 L2.48549095,76.364914 C0.56677666,78.121131 0.437133803,81.0888558 2.19556237,83.0000331 C3.12427666,84.009623 4.39477666,84.5238095 5.67234809,84.5238095 C6.80849095,84.5238095 7.95170523,84.1152778 8.85684809,83.2911706 L36.3246338,58.7088294 L36.3576338,58.7088294 L55.1770624,63.3928571 L52.8505624,79.2457672 C52.5276338,81.8190476 54.3614909,84.1669312 56.9425624,84.4862434 C57.1405624,84.514418 57.3385624,84.5238095 57.5342052,84.5238095 C59.8748481,84.5238095 61.9090624,82.7863757 62.2060624,80.4103175 L64.5679195,61.0449735 C64.8366338,58.9271825 63.6321338,56.8962632 61.6427052,56.1026786 L61.6427052,56.1026786 Z" id="Shape"></path>
                    <ellipse id="Oval" cx="36.3199195" cy="18.7830688" rx="7.07142857" ry="7.04365079"></ellipse>
                </g>
                <g transform="translate(7.071429, 0.000000)" id="Shape" fill="#E64A19">
                    <path d="M84.8571429,30.5224868 C84.8571429,31.8208664 83.8035,32.8703704 82.5,32.8703704 L80.1428571,32.8703704 C78.8393571,32.8703704 77.7857143,31.8208664 77.7857143,30.5224868 L77.7857143,2.3478836 C77.7857143,1.04950397 78.8393571,0 80.1428571,0 L82.5,0 C83.8035,0 84.8571429,1.04950397 84.8571429,2.3478836 L84.8571429,30.5224868 L84.8571429,30.5224868 Z"></path>
                    <path d="M0,30.5224868 C0,31.8208664 1.05364286,32.8703704 2.35714286,32.8703704 L4.71428571,32.8703704 C6.01778571,32.8703704 7.07142857,31.8208664 7.07142857,30.5224868 L7.07142857,2.3478836 C7.07142857,1.04950397 6.01778571,0 4.71428571,0 L2.35714286,0 C1.05364286,0 0,1.04950397 0,2.3478836 L0,30.5224868 L0,30.5224868 Z"></path>
                </g>
                <g transform="translate(14.142857, 0.000000)" id="Shape" fill="#FF754C">
                    <path d="M70.7142857,30.5224868 C70.7142857,31.8208664 69.6606429,32.8703704 68.3571429,32.8703704 L66,32.8703704 C64.6965,32.8703704 63.6428571,31.8208664 63.6428571,30.5224868 L63.6428571,2.3478836 C63.6428571,1.04950397 64.6965,0 66,0 L68.3571429,0 C69.6606429,0 70.7142857,1.04950397 70.7142857,2.3478836 L70.7142857,30.5224868 L70.7142857,30.5224868 Z"></path>
                    <path d="M0,30.5224868 C0,31.8208664 1.05364286,32.8703704 2.35714286,32.8703704 L4.71428571,32.8703704 C6.01778571,32.8703704 7.07142857,31.8208664 7.07142857,30.5224868 L7.07142857,2.3478836 C7.07142857,1.04950397 6.01778571,0 4.71428571,0 L2.35714286,0 C1.05364286,0 0,1.04950397 0,2.3478836 L0,30.5224868 L0,30.5224868 Z"></path>
                </g>
                <g transform="translate(25.928571, 14.087302)" id="Rectangle-path" fill="#90A4AE">
                    <rect x="35.3571429" y="0" width="11.7857143" height="4.6957672"></rect>
                    <rect x="0" y="0" width="11.7857143" height="4.6957672"></rect>
                </g>
                <path d="M68.3571429,77.4801587 L68.3571429,66.9146825 L59.8266429,62.6673611 L61.4342143,53.048082 C58.5726429,51.3904762 56.5714286,47.7207341 56.5714286,43.4358466 C56.5714286,42.9146164 56.6350714,42.4145172 56.6916429,41.9120701 L56.5714286,42.2619048 C56.5714286,42.2619048 56.562,43.4147156 54.12,44.1049934 C53.691,48.408664 51.7864286,51.6534392 49.5,51.6534392 C47.2135714,51.6534392 45.309,48.408664 44.88,44.1049934 C42.438,43.4147156 42.4285714,42.2619048 42.4285714,42.2619048 L42.3083571,41.9120701 C42.3649286,42.4145172 42.4285714,42.9146164 42.4285714,43.4358466 C42.4285714,47.6996032 40.4462143,51.3505622 37.6058571,53.0199074 L39.7414286,66.1023148 L30.7300714,75.2167989 L38.3342143,82.7910714 L49.5047143,72.7937831 L49.5377143,72.7937831 L68.3571429,77.4801587 L68.3571429,77.4801587 Z" id="Shape" fill="#00ACC1"></path>
                <polygon id="Shape" fill="#0097A7" points="49.4929286 68.0886243 35.5527857 80.0229167 38.3318571 82.7910714 49.5117857 72.7890873 68.3571429 77.4801587 68.3571429 73.8127646"></polygon>
            </g>
        </g>
    </g>
</svg>