<?xml version="1.0" encoding="UTF-8" standalone="no"?>
<svg width="102px" height="93px" viewBox="0 0 102 93" version="1.1" xmlns="http://www.w3.org/2000/svg" xmlns:xlink="http://www.w3.org/1999/xlink">
    <!-- Generator: Sketch 39.1 (31720) - http://www.bohemiancoding.com/sketch -->
    <title>Cycling</title>
    <desc>Created with Sketch.</desc>
    <defs></defs>
    <g id="icons" stroke="none" stroke-width="1" fill="none" fill-rule="evenodd">
        <g id="Cycling" transform="translate(1.000000, 0.000000)">
            <g id="Group">
                <g transform="translate(15.789474, 70.971429)" id="Oval" fill="#607D8B">
                    <ellipse cx="2.63157895" cy="2.62857143" rx="2.63157895" ry="2.62857143"></ellipse>
                    <ellipse cx="65.7894737" cy="2.62857143" rx="2.63157895" ry="2.62857143"></ellipse>
                </g>
                <g transform="translate(23.684211, 0.000000)" id="Shape" fill="#FFBA57">
                    <path d="M67.1052632,31.5428571 L50.7131579,31.5428571 L40.8894737,17.8664 C40.7736842,17.6587429 40.6921053,17.4405714 40.5578947,17.2408 C37.7342105,13.0114286 32.0184211,11.8758857 27.7842105,14.6884571 L6.73157895,30.4598857 C2.5,33.2777143 1.35526316,38.9869714 4.17631579,43.2189714 C4.72368421,44.0390857 5.40789474,44.7014857 6.14210526,45.2824 C6.23684211,45.3770286 6.31052632,45.5137143 6.41315789,45.5899429 L7.28684211,46.0736 C7.45,46.1682286 7.61052632,46.2628571 7.77894737,46.3469714 L23.3815789,54.9765714 L21.0842105,75.6502857 C20.7631579,78.5338286 22.8447368,81.1387429 25.7342105,81.4568 C25.9315789,81.4752 26.1289474,81.4857143 26.3236842,81.4857143 C28.9684211,81.4857143 31.2473684,79.4932571 31.5447368,76.8094857 L34.1763158,53.1523429 C34.3842105,51.3044571 33.5947368,49.4802286 32.1052632,48.3683429 L22.9631579,41.2659429 L37.7210526,30.2101714 L45.4710526,37.7752 C46.2105263,38.8134857 47.4105263,39.4285714 48.6842105,39.4285714 L67.1052632,39.4285714 C69.2842105,39.4285714 71.0526316,37.6621714 71.0526316,35.4857143 C71.0526316,33.3092571 69.2842105,31.5428571 67.1052632,31.5428571 L67.1052632,31.5428571 Z"></path>
                    <path d="M51.3157895,0 C56.4026316,0 60.5263158,4.11897143 60.5263158,9.2 C60.5263158,14.2784 56.4026316,18.4 51.3157895,18.4 C46.2289474,18.4 42.1052632,14.2784 42.1052632,9.2 C42.1052632,4.11897143 46.2289474,0 51.3157895,0"></path>
                </g>
                <g transform="translate(0.000000, 55.200000)" stroke="#B0BEC5" id="Oval" stroke-width="1.84210526">
                    <ellipse cx="18.4210526" cy="18.4" rx="18.4210526" ry="18.4"></ellipse>
                    <ellipse cx="81.5789474" cy="18.4" rx="18.4210526" ry="18.4"></ellipse>
                </g>
                <path d="M46.6473684,41.2659429 L30.4157895,30.4598857 C26.1842105,33.2777143 25.0394737,38.9869714 27.8605263,43.2189714 C28.4078947,44.0390857 29.0921053,44.7014857 29.8263158,45.2824 C29.9210526,45.3770286 29.9947368,45.5137143 30.0973684,45.5899429 L30.9710526,46.0736 C31.1342105,46.1682286 31.2947368,46.2628571 31.4631579,46.3469714 L46.0526316,54.4114286 L55.9236842,48.4945143 C55.8763158,48.4550857 55.8421053,48.4025143 55.7921053,48.3657143 L46.6473684,41.2659429 L46.6473684,41.2659429 Z" id="Shape" fill="#2D4C5C"></path>
                <path d="M64.5736842,17.8664 C64.4578947,17.6587429 64.3763158,17.4405714 64.2421053,17.2408 C61.4184211,13.0114286 55.7026316,11.8758857 51.4684211,14.6884571 L30.4157895,30.4598857 L46.6473684,41.2659429 L61.4052632,30.2101714 L68.3184211,36.9577143 L68.4210526,36.8 L74.1,31.1275429 L64.5736842,17.8664 L64.5736842,17.8664 Z" id="Shape" fill="#9575CD"></path>
            </g>
        </g>
    </g>
</svg>