<?xml version="1.0" encoding="UTF-8" standalone="no"?>
<svg width="102px" height="101px" viewBox="0 0 102 101" version="1.1" xmlns="http://www.w3.org/2000/svg" xmlns:xlink="http://www.w3.org/1999/xlink">
    <!-- Generator: Sketch 39.1 (31720) - http://www.bohemiancoding.com/sketch -->
    <title>JumpRope</title>
    <desc>Created with Sketch.</desc>
    <defs></defs>
    <g id="icons" stroke="none" stroke-width="1" fill="none" fill-rule="evenodd">
        <g id="JumpRope" transform="translate(3.000000, 1.000000)">
            <g id="ROPE" transform="translate(0.000000, 2.000000)" stroke="#63C292" stroke-width="4.22535211">
                <path d="M70.8681543,2.1850436 C70.8681543,2.1850436 62.4695778,-1.69812557 58.14249,2.18504358 C53.8154022,6.06821274 57.1789539,16.464751 57.1789539,16.464751 C83.0006754,49.6635845 96.6043461,48.7023936 95.9815929,66.9072089 C94.047603,84.9040533 84.2487224,95.1856184 65.2705774,95.7687141 C44.6192931,97.1015801 26.7101449,78.1750832 26.7101449,69.2512567 C26.7101449,56.3999369 38.0840148,48.650435 49.1326259,46.6723783" id="Path-10"></path>
                <path d="M44.1580094,1.72585297 C44.1580094,1.72585297 35.7594329,-2.1573162 31.432345,1.72585296 C27.1052572,5.60902211 30.468809,16.0055604 30.468809,16.0055604 C56.2905304,49.2043938 69.8942011,48.243203 69.271448,66.4480182 C67.3374581,84.4448627 57.5385775,94.7264278 38.5604325,95.3095235 C17.9091482,96.6423894 0,77.7158925 0,68.792066 C0,55.9407463 11.4161265,48.6411476 21.0611687,46.6630909" id="Path-10" transform="translate(34.645957, 47.688205) scale(-1, 1) translate(-34.645957, -47.688205) "></path>
            </g>
            <path d="M82.6839654,8.09246205 L94.1859417,19.6161496 C94.7450656,24.0975837 90.9909483,29.2992482 85.2399602,28.5790177 L73.7379839,17.0553302 L82.6839654,8.09246205 Z M82.6839654,8.09246205 L75.0159812,8.09246205 L73.7379839,0.410003662 L66.0699997,8.09246205 L73.7379839,9.37287178 L73.7379839,17.0553302 L82.6839654,8.09246205 Z" id="Combined-Shape" fill="#F79911"></path>
            <path d="M19.0239656,7.68245839 L30.5259419,19.206146 C31.0850657,23.68758 27.3309485,28.8892446 21.5799603,28.1690141 L10.077984,16.6453265 L19.0239656,7.68245839 Z M19.0239656,7.68245839 L11.3559814,7.68245839 L10.077984,0 L2.40999985,7.68245839 L10.077984,8.96286812 L10.077984,16.6453265 L19.0239656,7.68245839 Z" id="Combined-Shape" fill="#F79911" transform="translate(16.495474, 14.118143) scale(-1, 1) translate(-16.495474, -14.118143) "></path>
        </g>
    </g>
</svg>