<?xml version="1.0" encoding="UTF-8" standalone="no"?>
<svg width="99px" height="99px" viewBox="0 0 99 99" version="1.1" xmlns="http://www.w3.org/2000/svg" xmlns:xlink="http://www.w3.org/1999/xlink">
    <!-- Generator: Sketch 39.1 (31720) - http://www.bohemiancoding.com/sketch -->
    <title>Meditating</title>
    <desc>Created with Sketch.</desc>
    <defs></defs>
    <g id="icons" stroke="none" stroke-width="1" fill="none" fill-rule="evenodd">
        <g id="Meditating">
            <path d="M69.1265294,29.8121325 C71.9016263,31.3339203 85.5227492,55.343564 85.5227492,55.343564 L76.7435595,63.5212159 L69.0553615,40.8540377 L69.1265288,72.8465452 C69.1265288,72.8465452 86.8623614,83.9916351 88.6541104,85.9700587 C90.4458594,87.9484824 90.3234372,90.7634216 88.7323944,94.4950614 C87.1413515,98.2267011 83.0985915,99 83.0985915,99 L49.2957746,98.9753122 L49.2957746,25.4571429 L58.5043116,25.4571429 C63.8771646,26.6370636 66.3514325,28.2903448 69.1265294,29.8121325 Z M28.4281137,30.1003133 C26.136032,31.3572286 13.0688001,55.343564 13.0688001,55.343564 L21.8479898,63.5212159 L29.5361878,40.8540377 L29.4650205,72.8465452 C29.4650205,72.8465452 11.706954,84.0161854 9.9374389,85.9700587 C8.16792376,87.923932 8.27860639,90.788035 9.85915493,94.4950614 C11.4397035,98.2020877 15.4929577,99 15.4929577,99 L46.6964326,98.9714784 L49.2957746,98.9714763 L49.2957746,25.4571429 L40.0872377,25.4571429 C34.1968901,26.7677779 30.7201955,28.8433979 28.4281137,30.1003133 Z" id="Combined-Shape" fill="#FF754C"></path>
            <polygon id="Path-6" fill="#E94E1E" points="29.5523543 40.7968427 29.5523543 53.5090995 21.8215298 63.5428973"></polygon>
            <polygon id="Path-6" fill="#E94E1E" transform="translate(72.949902, 52.387313) scale(-1, 1) translate(-72.949902, -52.387313) " points="76.8153144 41.0142857 76.8153144 53.7265424 69.0844898 63.7603402"></polygon>
            <path d="M64.7887324,84.8571429 L68.9713423,83.5437456 C64.1331364,81.4246683 54.4788732,80.1051429 49.2957746,79.2 C44.1126761,78.2948571 40.1961951,78.129854 38.028169,79.2 C35.8601429,80.270146 32.5119824,84.314458 30.9859155,87.6857143 C29.4598486,91.0569705 30.9859155,94.7571429 30.9859155,94.7571429 C30.9859155,94.7571429 32.7368284,98.6272481 33.8028169,99 L63.3802817,99 L64.7887324,84.8571429 Z" id="Path-7" fill="#E94E1E"></path>
            <path d="M64.7887324,84.8571429 L43.6619718,84.8571429 C43.6619718,84.8571429 36.6197183,86.2457581 36.6197183,91.9285714 C36.6197183,97.4492291 43.6619718,99 43.6619718,99 L64.7887324,99 L64.7887324,84.8571429 Z" id="Path-8" fill="#FFB74D"></path>
            <path d="M21.8613316,63.5032758 L13.1017551,55.3561131 L1.40717644,66.4714286 C1.40717644,66.4714286 -1.52693689,70.8721104 1.13849413,73.9635878 C3.80392515,77.0550651 9.19239502,74.9759682 9.19239502,74.9759682 L21.8613316,63.5032758 Z" id="Path-9" fill="#FFB74D"></path>
            <path d="M98.6021777,63.4457428 L89.8426012,55.2985801 L78.1480225,66.4138955 C78.1480225,66.4138955 75.2139092,70.8145774 77.8793402,73.9060547 C80.5447713,76.9975321 85.9332411,74.9184352 85.9332411,74.9184352 L98.6021777,63.4457428 Z" id="Path-9" fill="#FFB74D" transform="translate(87.681371, 65.450501) scale(-1, 1) translate(-87.681371, -65.450501) "></path>
            <ellipse id="Oval-3" fill="#FFB74D" cx="49.2957746" cy="11.3142857" rx="11.2676056" ry="11.3142857"></ellipse>
        </g>
    </g>
</svg>