<?xml version="1.0" encoding="UTF-8" standalone="no"?>
<svg width="71px" height="100px" viewBox="0 0 71 100" version="1.1" xmlns="http://www.w3.org/2000/svg" xmlns:xlink="http://www.w3.org/1999/xlink">
    <!-- Generator: Sketch 39.1 (31720) - http://www.bohemiancoding.com/sketch -->
    <title>Person</title>
    <desc>Created with Sketch.</desc>
    <defs></defs>
    <g id="icons" stroke="none" stroke-width="1" fill="none" fill-rule="evenodd">
        <g id="Person">
            <path d="M27.8709677,55.8139535 L33.6774194,62.7906977 C33.6774194,62.7906977 34.2496371,75.9844463 34.8387097,77.9069767 C35.4277823,79.8295072 51.0967742,97.6744186 51.0967742,97.6744186 C51.0967742,97.6744186 53.7389418,97.82667 55.6126866,96.3858456 C57.4864315,94.9450211 58.0645161,91.8604651 58.0645161,91.8604651 C58.0645161,91.8604651 44.6788648,77.0942606 44.1290323,75.5813953 C44.0331984,74.5838062 46.4516129,55.8139535 46.4516129,55.8139535 L27.8709677,55.8139535 Z" id="Path-16" fill="#D2CCC9"></path>
            <polygon id="Path-17" fill="#AB47BC" points="32.516129 55.8139535 32.516129 37.2093023 27.8709677 33.7209302 27.8709677 55.8139535"></polygon>
            <path d="M27.8709677,55.8139535 L33.6825041,62.7964473 L34.8387097,68.6046512 L30.1935484,75.5813953 L37.1612903,95.3488372 C37.1612903,95.3488372 36.4384055,98.0171511 34.19042,98.8372093 C31.9424345,99.6408193 29.0322581,98.8372093 29.0322581,98.8372093 C29.0322581,98.8372093 20.8659033,78.2608573 20.9032258,75.5813953 C20.8659033,72.8882886 27.8709677,55.8139535 27.8709677,55.8139535 Z" id="Path-18" fill="#B2AEAD"></path>
            <polygon id="Path-19" fill="#BA68C8" points="20.9032258 31.3953488 27.8709677 34.8837209 27.8709677 55.8139535 46.4516129 55.8139535 46.4516129 32.5581395 52.2580645 26.744186 47.6129032 20.9302326 24.3870968 23.255814"></polygon>
            <path d="M27.8709677,34.8837209 C27.8709677,34.8837209 20.1524633,48.4470966 18.5806452,48.8372093 C17.0088271,49.227322 1.16129032,43.0232558 1.16129032,43.0232558 C1.16129032,43.0232558 0.159981723,40.5358443 0.702925659,39.1767308 C1.24586959,37.8176172 3.48387097,37.2093023 3.48387097,37.2093023 C3.48387097,37.2093023 13.8574841,41.2790698 15.0967742,40.6976744 C16.3360643,40.1162791 20.9032258,31.3953488 20.9032258,31.3953488 L27.8709677,34.8837209 Z" id="Path-20" fill="#FFB74D"></path>
            <path d="M52.2580645,26.744186 C52.2580645,26.744186 55.9511099,31.3953481 56.9032258,31.3953488 C57.8553418,31.3953495 66.1935484,22.0930233 66.1935484,22.0930233 C66.1935484,22.0930233 68.7137589,21.986575 69.9623617,23.0401993 C71.2109646,24.0938237 70.8387097,26.744186 70.8387097,26.744186 C70.8387097,26.744186 59.5102826,39.5348833 58.068564,39.5348837 C56.6268455,39.5348841 46.4516129,32.5581395 46.4516129,32.5581395 L52.2580645,26.744186 Z" id="Path-21" fill="#FFB74D"></path>
            <ellipse id="Oval-5" fill="#FFB74D" cx="32.516129" cy="9.30232558" rx="9.29032258" ry="9.30232558"></ellipse>
        </g>
    </g>
</svg>