<?xml version="1.0" encoding="UTF-8" standalone="no"?>
<svg width="99px" height="84px" viewBox="0 0 99 84" version="1.1" xmlns="http://www.w3.org/2000/svg" xmlns:xlink="http://www.w3.org/1999/xlink">
    <!-- Generator: Sketch 39.1 (31720) - http://www.bohemiancoding.com/sketch -->
    <title>Pilates</title>
    <desc>Created with Sketch.</desc>
    <defs></defs>
    <g id="icons" stroke="none" stroke-width="1" fill="none" fill-rule="evenodd">
        <g id="Pilates" transform="translate(-1.000000, 0.000000)">
            <ellipse id="Oval-6" fill="#FFB74D" cx="12.0842572" cy="10.9957924" rx="11.0864745" ry="10.9957924"></ellipse>
            <path d="M49.5011086,56.3534362 L32.8713969,68.7237027 C32.8713969,68.7237027 14.9004854,44.126338 13.4700665,41.2342216 C12.0396477,38.3421052 11.272021,32.5822314 13.4700665,30.2384292 C15.668112,27.8946269 18.1279275,24.740533 21.7849224,24.740533 C25.4419173,24.740533 32.8713969,31.6129032 32.8713969,31.6129032 L49.5011086,56.3534362 Z" id="Path-22" fill="#BA68C8"></path>
            <path d="M32.8713969,68.7237027 L49.5011086,54.9789621 L64.7450111,42.6086957 L89.6895787,30.2384292 C89.6895787,30.2384292 96.1463979,29.2216501 98.7074998,33.5847858 C101.268602,37.9479215 96.6186253,42.6086957 96.6186253,42.6086957 L74.4456763,53.6044881 C74.4456763,53.6044881 53.0363117,79.7194955 45.3541624,79.7194955 C37.6720131,79.7194955 32.8713969,68.7237027 32.8713969,68.7237027 Z" id="Path-23" fill="#5EC08F"></path>
            <path d="M17.6274945,31.6129032 C17.2586817,32.3055926 19.6101825,37.66349 20.3991131,38.4852735 C21.1880437,39.307057 26.017476,39.8597475 27.3281596,39.8597475 C28.6388433,39.8597475 36.584256,37.1153292 36.584256,37.1153292 L34.1518155,33.4336786 C34.1518155,33.4336786 17.9963072,30.9202138 17.6274945,31.6129032 Z" id="Path-25" fill="#AB47BC"></path>
            <path d="M19.5787,26.4288361 C19.5787,26.4288361 16.9223503,28.1130926 17.8084328,31.8442673 C18.6945154,35.5858777 22.3556516,36.0501545 22.3556516,36.0501545 C22.3556516,36.0501545 45.7726359,31.1718022 47.3002192,30.5522583 C48.3620123,29.9826325 66.7015496,12.6840956 66.7015496,12.6840956 C66.7015496,12.6840956 66.985744,9.9872571 64.4459834,8.03166147 C61.9062229,6.07606584 59.772503,7.18619939 59.772503,7.18619939 L41.756982,22.305414 L19.5787,26.4288361 Z" id="Path-24" fill="#FFB74D"></path>
            <polygon id="Shape" fill="#FF754C" points="0.997782705 79.7194951 0.997782705 84 99.4773058 84 99.4773058 79.7194951 81.571938 79.7194951"></polygon>
        </g>
    </g>
</svg>