<?xml version="1.0" encoding="UTF-8" standalone="no"?>
<svg width="93px" height="100px" viewBox="0 0 93 100" version="1.1" xmlns="http://www.w3.org/2000/svg" xmlns:xlink="http://www.w3.org/1999/xlink">
    <!-- Generator: Sketch 39.1 (31720) - http://www.bohemiancoding.com/sketch -->
    <title>Running</title>
    <desc>Created with Sketch.</desc>
    <defs></defs>
    <g id="icons" stroke="none" stroke-width="1" fill="none" fill-rule="evenodd">
        <g id="Running">
            <g id="Group">
                <path d="M92.5025,46.25 C92.5025,48.32 90.8225,50 88.7525,50 L72.5275,50 C71.0275,50 69.6725,49.1075 69.08,47.725 L62.7475,35.3625 L52.5125,53.5125 L65.5525,68.5375 C67.5125,70.0475 68.0725,72.7625 66.87,74.93 L54.37,97.43 C53.4575,99.0725 51.7525,100 49.995,100 C49.175,100 48.34,99.7925 47.57,99.37 C45.1575,98.0275 44.285,94.9875 45.63,92.57 L56.0375,73.84 L41.865,61.145 L31.77,72.6 C30.865,74.0925 29.245,75 27.5,75 L5,75 C2.24,75 0,72.7625 0,70 C0,67.235 2.24,65 5,65 L24.69,65 L37.61,44.585 L37.5,44.5175 L48.235,25.485 L38.215,22.5 L25.83,31.87 C24.105,33.0175 21.7775,32.555 20.63,30.83 C19.48,29.1075 19.9475,26.7775 21.67,25.63 L35,15.63 C35.615,15.22 36.34,15 37.08,15 L53.0425,16.96 L53.0425,16.96 L53.0725,16.9625 C53.75,16.9625 54.42,17.1475 55,17.5 L66.9275,24.2875 C67.2125,24.4575 67.4575,24.6725 67.6775,24.915 C67.9925,25.2425 68.2675,25.605 68.4475,26.0275 L75,42.5 L88.7525,42.5 C90.8225,42.5 92.5025,44.18 92.5025,46.25 L92.5025,46.25 Z M70,0 C64.4775,0 60,4.4775 60,10 C60,15.52 64.4775,20 70,20 C75.5225,20 80,15.52 80,10 C80,4.4775 75.5225,0 70,0 L70,0 Z" id="Shape" fill="#FFBA57"></path>
                <polygon id="Shape" fill="#2D4C5C" points="37.61 44.585 24.69 65 31.77 72.5975 49.9325 51.99"></polygon>
                <path d="M66.9275,24.2875 L55,17.5 C54.42,17.1475 53.75,16.9625 53.0725,16.9625 L53.0425,16.96 L37.5,44.5175 L52.5,53.53 L68.2175,25.66 C67.9,25.1075 67.48,24.6175 66.9275,24.2875 L66.9275,24.2875 Z" id="Shape" fill="#00ACC1"></path>
                <path d="M52.5,53.5325 L37.5,44.52 L40.03,40.035 L36.2425,46.75 C33.8125,50.7975 35.06,56 38.975,58.5575 L56.035,73.84 L65.55,68.54 L52.51,53.515 L52.5,53.5325 L52.5,53.5325 Z" id="Shape" fill="#546E7A"></path>
            </g>
        </g>
    </g>
</svg>