<?xml version="1.0" encoding="UTF-8" standalone="no"?>
<svg width="99px" height="95px" viewBox="0 0 99 95" version="1.1" xmlns="http://www.w3.org/2000/svg" xmlns:xlink="http://www.w3.org/1999/xlink">
    <!-- Generator: Sketch 39.1 (31720) - http://www.bohemiancoding.com/sketch -->
    <title>Weightlifting</title>
    <desc>Created with Sketch.</desc>
    <defs></defs>
    <g id="icons" stroke="none" stroke-width="1" fill="none" fill-rule="evenodd">
        <g id="Weightlifting">
            <g id="GUY" transform="translate(0.000000, 37.270588)">
                <path d="M58.5505167,12.4235294 L58.5505153,30.500382 C58.5505153,30.500382 30.3665274,30.5003822 27.8850427,30.500382 C27.8850427,30.500382 22.8176128,27.3383198 22.4772478,24.6878213 C22.4719101,24.6427325 22.4719101,12.4830687 22.4719101,12.4830687 L58.5505167,12.4235294 Z" id="Path-2" fill="#FF754C"></path>
                <path d="M80.9097809,30.4996499 L80.9097809,15.7879826 L58.4731439,12.3849375 L58.4731439,29.6022235 L58.4731439,30.4996496 L80.9097809,30.4996499 Z" id="Path-3" fill="#9575CD"></path>
                <path d="M22.4719101,0 L32.5842697,0 L32.5842697,21.8772151 C32.5842697,21.8772151 31.9082849,27.094588 27.5280899,27.094588 C23.1478948,27.094588 22.4719101,21.8772151 22.4719101,21.8772151 L22.4719101,0 Z" id="Rectangle" fill="#FFB74D"></path>
                <path d="M87.6745768,30.4668188 L87.6745766,53.0971003 C87.6745766,53.0971003 89.2548037,57.6162036 93.3738784,57.6162036 C97.4929531,57.6162036 98.916061,53.0970994 98.916061,53.0970994 C98.916061,53.0970994 98.8884729,25.4713608 98.8884737,23.7070646 C98.8884744,21.9427685 95.9744958,19.3556454 93.082755,18.0849571 C90.1910142,16.8142687 80.8775656,15.7802661 80.8775656,15.7802661 L80.8775656,30.4668187 L87.6745768,30.4668188 Z" id="Path-4" fill="#FFB74D"></path>
                <ellipse id="Oval-2" fill="#FFB74D" cx="10.1123596" cy="20.3294118" rx="10.1123596" ry="10.1647059"></ellipse>
            </g>
            <g id="Bench" transform="translate(0.000000, 66.635294)">
                <polygon id="Shape" fill="#607D8B" points="13.4831461 13.5529412 13.4831461 10.1647059 4.49438202 10.1647059 4.49438202 23.7176471 2.24719101 23.7176471 2.24719101 28.2352941 15.7303371 28.2352941 15.7303371 23.7176471 13.4831461 23.7176471"></polygon>
                <polygon id="Shape" fill="#607D8B" points="69.6629213 10.1647059 67.4157303 10.1647059 67.4157303 23.7176471 65.1685393 23.7176471 65.1685393 28.2352941 78.6516854 28.2352941 78.6516854 23.7176471 76.4044944 23.7176471 76.4044944 10.1647059"></polygon>
                <path d="M4.49438202,1.12941176 C4.49438202,1.12941176 2.11158214,1.12941176 1.12359551,2.25882353 C0.135608871,3.38823529 -7.98362624e-15,4.51764706 -7.98362624e-15,4.51764706 L-7.98362624e-15,10.1647059 L80.8988764,10.1647059 L80.8988764,4.51764706 C80.8988764,4.51764706 80.8988764,3.46320159 79.7752809,2.25882353 C78.6516854,1.05444547 76.4044944,1.12941176 76.4044944,1.12941176 L69.6629213,1.12941176 L4.49438202,1.12941176 Z" id="Shape" fill="#90A4AE"></path>
            </g>
            <g id="Weight" transform="translate(6.741573, 0.000000)">
                <ellipse id="Oval" fill="#FF754C" cx="20.2247191" cy="20.3294118" rx="20.2247191" ry="20.3294118"></ellipse>
                <ellipse id="Oval" fill="#C93D18" cx="20.2247191" cy="20.3294118" rx="16.8539326" ry="16.9411765"></ellipse>
                <ellipse id="Oval" fill="#B1B7BB" cx="20.2247191" cy="20.3294118" rx="6.74157303" ry="6.77647059"></ellipse>
                <ellipse id="Oval" fill="#455A64" cx="20.2247191" cy="20.3294118" rx="3.37078652" ry="3.38823529"></ellipse>
            </g>
        </g>
    </g>
</svg>