<?xml version="1.0" encoding="UTF-8" standalone="no"?>
<svg width="47px" height="99px" viewBox="0 0 47 99" version="1.1" xmlns="http://www.w3.org/2000/svg" xmlns:xlink="http://www.w3.org/1999/xlink">
    <!-- Generator: Sketch 39.1 (31720) - http://www.bohemiancoding.com/sketch -->
    <title>Yoga</title>
    <desc>Created with Sketch.</desc>
    <defs></defs>
    <g id="icons" stroke="none" stroke-width="1" fill="none" fill-rule="evenodd">
        <g id="Yoga">
            <ellipse id="Oval-4" fill="#FFB74D" cx="23.5" cy="17.9775281" rx="8.95238095" ry="8.98876404"></ellipse>
            <polygon id="Path-13" fill="#FF66A1" points="12.3095238 55.0561798 34.6904762 51.6853933 34.6904762 31.4606742 12.3095238 31.4606742"></polygon>
            <path d="M16.7822611,31.6318801 L16.7526245,36.9223796 L12.8457852,40.6190469 C12.8457852,40.6190469 1.95093257,22.7461224 1.3992766,21.6642951 C0.847620636,20.5824679 0.808935835,19.7535511 1.30100769,17.979113 C1.79307954,16.2046748 11.1904762,1.12359551 11.1904762,1.12359551 C11.1904762,1.12359551 13.181614,-0.0102207999 15.0282395,1.12359549 C16.8748651,2.25741178 16.752624,4.47931502 16.752624,4.47931502 C16.752624,4.47931502 8.28070019,16.072048 8.28070025,18.8681717 C8.28070031,21.6642954 16.7822611,31.6318801 16.7822611,31.6318801 Z" id="Path-14" fill="#FFB74D"></path>
            <path d="M46.0394867,32.1357985 L46.0098501,37.426298 L42.1030108,41.1229653 C42.1030108,41.1229653 31.2081582,23.2500407 30.6565022,22.1682135 C30.1048462,21.0863863 30.0661614,20.2574695 30.5582333,18.4830314 C31.0503051,16.7085932 40.4477018,1.62751387 40.4477018,1.62751387 C40.4477018,1.62751387 42.4388396,0.493697563 44.2854651,1.62751385 C46.1320907,2.76133014 46.0098496,4.98323338 46.0098496,4.98323338 C46.0098496,4.98323338 37.5379258,16.5759663 37.5379259,19.37209 C37.5379259,22.1682137 46.0394867,32.1357985 46.0394867,32.1357985 Z" id="Path-14" fill="#FFB74D" transform="translate(38.126886, 21.123280) scale(-1, 1) translate(-38.126886, -21.123280) "></path>
            <path d="M34.6904762,51.6853933 L12.3095238,55.0561798 L12.3095238,75.2808989 L16.7857143,95.505618 C16.7857143,95.505618 18.9343676,99.168529 21.2619048,98.8764045 C23.5894419,98.5842799 25.7380952,95.6374736 25.7380952,94.3820225 C25.7380952,93.1265713 22.3809524,78.6516854 22.3809524,78.6516854 L22.3809524,64.0449438 L24.6190476,59.5505618 L34.6904762,65.1685393 L26.8571429,71.9101124 C26.8571429,71.9101124 25.7215695,75.1796272 27.4166667,76.9662921 C29.2656657,78.8181369 32.4468934,77.5234587 32.4468934,77.5234587 C32.4468934,77.5234587 44.6069122,67.762107 45.8809524,66.2921348 C46.3008599,65.5023821 46.6440374,64.2429416 45.8809524,62.9213483 L34.6904762,51.6853933 Z" id="Path-15" fill="#BA68C8"></path>
        </g>
    </g>
</svg>